<svg version="1.1" xmlns="http://www.w3.org/2000/svg" xmlns:xlink="http://www.w3.org/1999/xlink" x="0px" y="0px" width="731.815px" height="439.202px" viewBox="0 0 731.815 439.202" enable-background="new 0 0 731.815 439.202" xml:space="preserve">

<style>
g.logo g.state,
g.logo g.machine {
  transform: scale(1, 1);
  transform-origin: left;
  transition: transform 200ms ease-out;
}
g.logo:hover g.state,
g.logo:hover g.machine {
  transform: scale(1.3, 1.3);
  transform-origin: left;
}

g.logo g.oftheunion {
  transform: scale(1, 1);
  transform-origin: center;
  transition: all 200ms ease-out;
  opacity: 1;
}
g.logo:hover g.oftheunion {
  transform: scale(0.75, 0.75);
  transform-origin: center;
  opacity: .8;
}
</style>

<g class="logo">
    <g class="logo-base">
        <polygon fill="#89181A" points="0,76.502 335.93,15.007 647.769,32.409 678.373,244.25 428.691,383.751 450.586,439.202 
            367.859,405.618 205.879,426.011"/>
        <polygon fill="#2880B9" points="61.854,0 731.815,36.617 715.47,293.493 444.208,384.147 450.586,439.202 377.434,391.882 
            204.955,376.186"/>
    </g>

    <g class="letters">
        <g class="state">
            <path fill="#FFFFFF" d="M213.627,171.12c-0.936-0.801-2.029-1.375-3.269-1.723c-1.245-0.346-2.49-0.419-3.741-0.219 c-0.647,0.104-1.311,0.342-1.987,0.708c-0.678,0.371-1.265,0.859-1.76,1.457c-0.501,0.605-0.884,1.32-1.154,2.147 c-0.272,0.827-0.321,1.772-0.152,2.84c0.218,1.342,0.799,2.39,1.752,3.14c0.95,0.749,2.31,1.458,4.079,2.122 c1.013,0.408,2.104,0.907,3.269,1.508c1.165,0.594,2.258,1.344,3.283,2.251c1.022,0.905,1.921,1.995,2.696,3.272 c0.776,1.277,1.305,2.814,1.594,4.62c0.452,2.828,0.375,5.37-0.238,7.628c-0.61,2.258-1.603,4.225-2.974,5.894 c-1.371,1.666-3.02,3.011-4.946,4.033c-1.926,1.019-3.976,1.703-6.154,2.052c-3.008,0.484-5.845,0.415-8.51-0.2 c-2.662-0.618-4.809-1.557-6.435-2.814l5.041-9.005c1.093,0.919,2.382,1.606,3.856,2.055c1.471,0.455,2.951,0.558,4.434,0.321 c0.738-0.117,1.457-0.375,2.155-0.77c0.696-0.398,1.291-0.896,1.789-1.5c0.498-0.601,0.862-1.302,1.091-2.095 c0.226-0.796,0.266-1.657,0.117-2.585c-0.215-1.342-0.81-2.47-1.786-3.383c-0.979-0.916-2.479-1.752-4.5-2.522 c-1.165-0.429-2.301-0.936-3.415-1.52c-1.116-0.581-2.135-1.32-3.063-2.215s-1.726-1.958-2.399-3.176 c-0.67-1.222-1.142-2.691-1.417-4.405c-0.378-2.361-0.315-4.627,0.192-6.798c0.507-2.168,1.383-4.115,2.628-5.835 c1.245-1.72,2.839-3.174,4.789-4.367c1.944-1.186,4.168-1.984,6.669-2.384c2.822-0.452,5.419-0.416,7.783,0.107 c2.361,0.522,4.285,1.403,5.765,2.636L213.627,171.12z"/>
            <path fill="#FFFFFF" d="M247.314,163.511l-9.028,1.446l-0.595,41.204l-10.557,1.692l0.593-41.204l-9.028,1.447l0.137-9.356 l28.618-4.586L247.314,163.511z"/>
            <path fill="#FFFFFF" d="M270.686,200.874l-1.689-9.208l-11.461,1.838l-2.201,9.829l-11.112,1.78l13.445-52.595l13.405-2.148 l10.451,48.767L270.686,200.874z M264.022,162.401l-0.278,0.044l-4.743,22.414l8.822-1.411L264.022,162.401z"/>
            <path fill="#FFFFFF" d="M308.023,153.782l-9.028,1.447l-0.595,41.203l-10.557,1.692l0.593-41.201l-9.028,1.446l0.137-9.354 l28.618-4.586L308.023,153.782z"/>
            <path fill="#FFFFFF" d="M334.117,149.886l-12.852,2.059l-0.169,10.502l12.016-1.925l-0.126,8.995l-11.948,1.914l-0.14,11.564 l14.031-2.248l-0.132,9.854l-24.242,3.884l0.661-50.547l22.994-3.685L334.117,149.886z"/>
        </g>
        <g class="oftheunion">
            <path fill="#FFFFFF" d="M381.99,158.78c0.484,3.023,0.561,6.063,0.232,9.125c-0.329,3.063-1.045,5.878-2.15,8.438 c-1.102,2.566-2.608,4.729-4.514,6.495c-1.909,1.769-4.199,2.865-6.873,3.295c-1.875,0.301-3.607,0.229-5.19-0.215 c-1.586-0.438-2.98-1.194-4.185-2.264c-1.205-1.072-2.204-2.426-3.003-4.06c-0.796-1.637-1.363-3.514-1.703-5.635 c-0.484-3.02-0.572-6.07-0.263-9.147c0.309-3.076,1.013-5.895,2.118-8.463c1.102-2.56,2.608-4.737,4.511-6.518 c1.906-1.783,4.213-2.895,6.921-3.329c1.981-0.318,3.761-0.253,5.347,0.189c1.583,0.438,2.971,1.202,4.162,2.299 c1.188,1.089,2.167,2.467,2.931,4.125C381.097,154.774,381.65,156.662,381.99,158.78z M373.89,161.251 c-0.155-0.97-0.381-1.915-0.667-2.829c-0.289-0.916-0.656-1.695-1.096-2.337c-0.441-0.64-0.976-1.135-1.6-1.481 c-0.624-0.343-1.354-0.449-2.187-0.316c-1.322,0.212-2.407,0.94-3.26,2.178c-0.85,1.241-1.491,2.735-1.924,4.478 c-0.435,1.746-0.673,3.598-0.713,5.563c-0.043,1.968,0.069,3.767,0.329,5.398c0.155,0.97,0.381,1.879,0.676,2.722 c0.298,0.842,0.661,1.561,1.093,2.15s0.967,1.02,1.597,1.292c0.633,0.273,1.363,0.343,2.198,0.21c1.248-0.2,2.299-0.884,3.143-2.054 c0.847-1.168,1.491-2.59,1.935-4.265c0.444-1.673,0.701-3.462,0.77-5.358C374.253,164.705,374.156,162.92,373.89,161.251z"/>
            <path fill="#FFFFFF" d="M404.105,149.091l-9.686,1.553l-0.097,8.082l9.014-1.443l-0.089,7.122l-8.959,1.436l-0.226,15.264 l-7.917,1.269l0.498-37.911l17.555-2.814L404.105,149.091z"/>

            <path fill="#FFFFFF" d="M436.651,143.45l-6.772,1.085l-0.444,30.901l-7.92,1.269l0.447-30.901l-6.772,1.085l0.103-7.019 l21.462-3.439L436.651,143.45z"/>
            <path fill="#FFFFFF" d="M463.4,169.995l-7.972,1.277l0.215-16.012l-8.911,1.428l-0.212,16.011l-7.972,1.278l0.498-37.913 l7.917-1.268l-0.175,14.564l8.905-1.428l0.177-14.564l8.023-1.285L463.4,169.995z"/>
            <path fill="#FFFFFF" d="M486.694,135.643l-9.638,1.544l-0.126,7.876l9.011-1.443l-0.094,6.744l-8.959,1.436l-0.109,8.675 l10.525-1.686l-0.097,7.391l-18.182,2.914l0.498-37.913l17.243-2.762L486.694,135.643z"/>

            <path fill="#FFFFFF" d="M538.83,139.241c-0.072,2.814-0.335,5.467-0.79,7.962s-1.259,4.739-2.41,6.728 c-1.156,1.991-2.719,3.652-4.689,4.991c-1.969,1.334-4.505,2.251-7.608,2.749c-2.499,0.401-4.734,0.402-6.695,0.006 c-1.966-0.398-3.661-1.125-5.087-2.175c-1.428-1.058-2.579-2.379-3.452-3.974c-0.873-1.593-1.471-3.408-1.798-5.446 c-0.135-0.833-0.24-1.717-0.321-2.656c-0.077-0.937-0.103-1.906-0.074-2.908l0.455-31.849l10.765-1.725l-0.447,30.991 c-0.014,0.81-0.006,1.604,0.023,2.382c0.031,0.781,0.097,1.496,0.2,2.143c0.26,1.623,0.81,2.912,1.652,3.866 c0.844,0.96,2.121,1.302,3.836,1.028c1.202-0.193,2.178-0.623,2.928-1.291c0.747-0.664,1.328-1.494,1.737-2.487 c0.412-0.99,0.704-2.13,0.879-3.416c0.175-1.285,0.263-2.643,0.275-4.069l0.378-30.983l10.697-1.713L538.83,139.241z"/>
            <path fill="#FFFFFF" d="M577.864,151.652l-11.461,1.836l-11.367-29.599l-0.209,0.033l-0.092,31.435l-9.586,1.536l0.664-50.547 l11.739-1.881l11.158,30.061l0.278-0.046l0.163-31.874l9.377-1.503L577.864,151.652z"/>
            <path fill="#FFFFFF" d="M596.132,148.724l-10.766,1.726l0.664-50.549l10.766-1.725L596.132,148.724z"/>
            <path fill="#FFFFFF" d="M638.868,109.529c0.644,4.03,0.75,8.089,0.312,12.17c-0.441,4.086-1.394,7.836-2.865,11.254 c-1.471,3.415-3.478,6.303-6.02,8.66c-2.545,2.351-5.599,3.816-9.165,4.387c-2.499,0.401-4.806,0.309-6.921-0.281 c-2.112-0.585-3.97-1.594-5.579-3.026c-1.606-1.424-2.94-3.23-4.002-5.411c-1.059-2.183-1.818-4.684-2.27-7.507 c-0.647-4.03-0.764-8.096-0.352-12.2c0.412-4.102,1.351-7.864,2.822-11.282c1.471-3.415,3.478-6.314,6.017-8.692 c2.542-2.38,5.616-3.856,9.228-4.435c2.639-0.422,5.015-0.339,7.127,0.245c2.112,0.588,3.962,1.61,5.55,3.064 c1.589,1.458,2.888,3.29,3.91,5.504C637.677,104.188,638.416,106.707,638.868,109.529z M628.068,112.827 c-0.206-1.294-0.504-2.552-0.89-3.773c-0.384-1.222-0.87-2.26-1.46-3.116c-0.59-0.854-1.299-1.51-2.135-1.972 c-0.83-0.459-1.806-0.603-2.917-0.425c-1.76,0.282-3.209,1.254-4.342,2.904c-1.136,1.656-1.995,3.645-2.57,5.97 c-0.578,2.33-0.893,4.799-0.947,7.421c-0.057,2.619,0.089,5.021,0.438,7.196c0.209,1.297,0.512,2.507,0.904,3.631 c0.395,1.125,0.879,2.078,1.454,2.864c0.581,0.789,1.291,1.361,2.13,1.726c0.842,0.364,1.82,0.457,2.931,0.279 c1.669-0.268,3.066-1.178,4.193-2.739c1.128-1.557,1.987-3.451,2.579-5.682c0.593-2.233,0.933-4.616,1.028-7.15 C628.558,117.43,628.426,115.054,628.068,112.827z"/>
            <path fill="#FFFFFF" d="M677.121,135.747l-11.461,1.836l-11.367-29.599l-0.209,0.033l-0.092,31.435l-9.586,1.537l0.664-50.549 l11.739-1.881l11.158,30.06l0.278-0.043l0.163-31.876l9.377-1.503L677.121,135.747z"/>
        </g>
        <g class="machine">
            <path fill="#FFFFFF" d="M362.689,279.255l-11.799,1.889l0.947-39.587l-0.235,0.037l-10.093,41.053l-8.593,1.377l-8.662-38.047 l-0.235,0.04l-0.169,39.461l-10.863,1.74l0.824-56.879l15.082-2.416l8.453,35.754l0.315-0.052l9.283-38.594l16.568-2.656 L362.689,279.255z"/>
            <path fill="#FFFFFF" d="M396.053,273.908l-1.898-10.356l-12.892,2.067l-2.479,11.057l-12.503,2.004l15.125-59.169l15.082-2.419 l11.756,54.864L396.053,273.908z M388.557,230.626l-0.312,0.049l-5.336,25.221l9.924-1.591L388.557,230.626z"/>
            <path fill="#FFFFFF" d="M439.207,224.592c-0.922-1.079-1.958-1.872-3.109-2.384c-1.151-0.507-2.559-0.635-4.225-0.366 c-2.084,0.332-3.838,1.391-5.264,3.169c-1.425,1.778-2.527,3.907-3.303,6.383c-0.781,2.476-1.248,5.152-1.4,8.035 c-0.152,2.882-0.026,5.602,0.384,8.155c0.535,3.335,1.571,5.96,3.106,7.877c1.54,1.918,3.635,2.665,6.292,2.238 c1.772-0.283,3.192-0.925,4.259-1.924c1.068-0.999,1.949-2.009,2.642-3.031l6.976,8.023c-1.523,2.164-3.423,4.059-5.702,5.682 c-2.278,1.617-5.084,2.699-8.418,3.232c-2.917,0.469-5.593,0.361-8.026-0.315c-2.433-0.681-4.554-1.838-6.369-3.472 c-1.809-1.629-3.315-3.698-4.52-6.209c-1.202-2.505-2.058-5.344-2.568-8.524c-0.753-4.689-0.844-9.349-0.278-13.98 c0.567-4.634,1.752-8.845,3.547-12.629c1.798-3.787,4.159-6.973,7.087-9.555c2.925-2.579,6.343-4.179,10.247-4.806 c3.753-0.601,6.861-0.458,9.329,0.429c2.465,0.884,4.497,2.135,6.088,3.75L439.207,224.592z"/>
            <path fill="#FFFFFF" d="M486.465,259.422l-11.956,1.915l0.318-24.016l-13.362,2.141l-0.318,24.016l-11.956,1.915l0.747-56.865 l11.879-1.903l-0.269,21.843l13.362-2.141l0.269-21.843l12.034-1.926L486.465,259.422z"/>
            <path fill="#FFFFFF" d="M507.017,256.127l-12.114,1.941l0.747-56.865l12.111-1.941L507.017,256.127z"/>
            <path fill="#FFFFFF" d="M552.26,248.877l-12.895,2.067l-12.789-33.295l-0.235,0.037l-0.103,35.362l-10.786,1.729l0.75-56.864 l13.204-2.118l12.552,33.816l0.312-0.049l0.186-35.857l10.551-1.692L552.26,248.877z"/>
            <path fill="#FFFFFF" d="M587.204,197.356l-14.458,2.316l-0.192,11.81l13.519-2.167l-0.14,10.121l-13.442,2.155l-0.157,13.01 l15.783-2.53l-0.149,11.083l-27.27,4.371l0.747-56.864l25.865-4.145L587.204,197.356z"/>
        </g>
    </g>

    <!-- <g class="state-machine-diagram">
        <circle fill="#1F6391" cx="293.785" cy="281.611" r="8.793"/>
        <circle fill="#1F6391" cx="353.842" cy="205.297" r="8.793"/>
        <circle fill="#1F6391" cx="262.873" cy="133.5" r="8.793"/>
        <circle fill="#1F6391" cx="425.971" cy="121.776" r="8.793"/>
        <circle fill="#1F6391" cx="604.696" cy="214.162" r="8.793"/>
        <circle fill="#1F6391" cx="591.082" cy="83.728" r="8.793"/>

        <path class="line1" fill="none" stroke="#1F6391" stroke-width="5" stroke-miterlimit="10" d="M248.75,130.5c0,0-95.274-35.821-95.349,41.472 C153.3,277,265,286.5,265,286.5"/>
        <path class="line2" fill="none" stroke="#1F6391" stroke-width="5" stroke-miterlimit="10" d="M275.661,124.707c0,0,19.06-55.007,63.526-68.802 c29.828-9.254,65.01,6.229,76.33,36.486"/>  
        <path class="line3" fill="none" stroke="#1F6391" stroke-width="5" stroke-miterlimit="10" d="M347.828,193.764c0,0-25.085-69.057,45.677-67.761"/>
        <path class="line4" fill="none" stroke="#1F6391" stroke-width="5" stroke-miterlimit="10" d="M436.86,107.848c0,0,6.902-32.552,43.871-54.293 c31.524-18.539,69.343-16.063,89.253,8.405"/>
        <path class="line5" fill="none" stroke="#1F6391" stroke-width="5" stroke-miterlimit="10" d="M609.062,79.763c0,0,102.629-42.092,105.153,24.864 c2.931,77.746-80.972,105.2-80.972,105.2"/>

        <path class="line1-tip" fill="#1F6391" d="M258.962,276.959l22.507,8.148l-20.543,12.37c0,0,4.748-6.797,4.362-10.821 C264.903,282.633,258.962,276.959,258.962,276.959z"/>
        <path class="line2-tip" fill="#1F6391" d="M423.65,84.152l-3.188,23.724l-16.447-17.451c0,0,7.65,3.197,11.5,1.967S423.65,84.152,423.65,84.152z"/>
        <path class="line3-tip" fill="#1F6391" d="M388.269,115.676l21.49,10.544l-21.764,10.067c0,0,5.457-6.241,5.511-10.284 C393.559,121.961,388.269,115.676,388.269,115.676z"/>
        <path class="line4-tip" fill="#1F6391" d="M573.368,50.887l8.18,22.496l-22.665-7.831c0,0,8.26-0.716,11.101-3.592 C572.824,59.084,573.368,50.887,573.368,50.887z"/>
        <path class="line5-tip" fill="#1F6391" d="M640.959,218.264l-22.994-6.652l19.686-13.693c0,0-4.291,7.094-3.642,11.084 C634.657,212.994,640.959,218.264,640.959,218.264z"/>
    </g> -->

</g>

</svg>
